<svg width="1440" height="1701" viewBox="0 0 1440 1701" fill="none" xmlns="http://www.w3.org/2000/svg">
<path d="M646.326 -82.0093L216.683 282.694L196.282 562.2L843.877 19.0596L646.326 -82.0093Z" stroke="#2D4F8D"/>
<path d="M257.094 -281.144L78.4755 -372.527L-350.467 -6.83833L-350.434 -7.24753L-562.735 174.276L-572.871 328.689L-491.248 370.449L38.8067 -70.3971L38.7327 -69.2177L257.06 -280.65L257.094 -281.144Z" stroke="#2D4F8D"/>
<path d="M77.8082 661.583L196.286 562.203L216.681 282.687L216.226 283.063L257.063 -280.655L38.7209 -69.1936L-5.00625 619.215L77.8082 661.583Z" stroke="#2D4F8D"/>
<path d="M-233.858 157.421C-213.991 204.641 -178.058 243.31 -132.419 266.581C-87.143 290.194 -34.8465 296.607 14.7929 284.633L39.3586 -69.1771L39.4132 -69.843L-233.858 157.421Z" stroke="#2D4F8D"/>
<path d="M1797.46 506.925L1367.82 871.629L1347.42 1151.13L1995.02 607.994L1797.46 506.925Z" stroke="#2D4F8D"/>
<path d="M644.429 -82.9797L588.862 763.444L801.173 581.926L842.008 18.1041L644.429 -82.9797Z" stroke="#2D4F8D"/>
<path d="M1408.23 307.791L1229.61 216.408L800.672 582.096L800.705 581.687L588.404 763.21L578.267 917.624L659.89 959.383L1189.95 518.537L1189.87 519.717L1408.2 308.285L1408.23 307.791Z" stroke="#2D4F8D"/>
<path d="M1228.95 1250.52L1347.42 1151.14L1367.82 871.622L1367.36 871.998L1408.2 308.28L1189.86 519.741L1146.13 1208.15L1228.95 1250.52Z" stroke="#2D4F8D"/>
<path d="M917.28 746.354C937.147 793.575 973.08 832.244 1018.72 855.515C1064 879.127 1116.29 885.54 1165.93 873.566L1190.5 519.756L1190.55 519.091L917.28 746.354Z" stroke="#2D4F8D"/>
<path d="M1795.57 505.955L1740 1352.38L1952.31 1170.86L1993.15 607.038L1795.57 505.955Z" stroke="#2D4F8D"/>
</svg>
